<?xml version="1.0" encoding="UTF-8"?>
<svg xmlns="http://www.w3.org/2000/svg" viewBox="0 0 1800 710" width="1800" height="710"
     style="font-family: 'Segoe UI', Arial, sans-serif;">
  <defs>
    <marker id="at" markerWidth="10" markerHeight="7" refX="9" refY="3.5" orient="auto">
      <polygon points="0 0, 10 3.5, 0 7" fill="#4ecdc4"/>
    </marker>
    <marker id="ar" markerWidth="10" markerHeight="7" refX="9" refY="3.5" orient="auto">
      <polygon points="0 0, 10 3.5, 0 7" fill="#e05555"/>
    </marker>
  </defs>

  <!-- BACKGROUND -->
  <rect width="1800" height="710" fill="#1a2535"/>

  <!-- ===== STAGE NUMBER LABELS ===== -->
  <text x="80"   y="24" text-anchor="middle" font-size="12" fill="#6b7a8d">1. Article In</text>
  <text x="242"  y="24" text-anchor="middle" font-size="12" fill="#6b7a8d">2. OS Detection</text>
  <text x="406"  y="24" text-anchor="middle" font-size="12" fill="#6b7a8d">3. Junk Filter</text>
  <text x="590"  y="24" text-anchor="middle" font-size="12" fill="#6b7a8d">4. Rank Agent</text>
  <text x="963"  y="24" text-anchor="middle" font-size="13" fill="#d4941a" font-weight="bold">5. Extract Agent</text>
  <text x="1312" y="24" text-anchor="middle" font-size="12" fill="#6b7a8d">6. Sigma</text>
  <text x="1477" y="24" text-anchor="middle" font-size="12" fill="#6b7a8d">7. Similarity Search</text>
  <text x="1680" y="24" text-anchor="middle" font-size="12" fill="#6b7a8d">8. Queue</text>

  <!-- ==================================================================== -->
  <!-- STAGE 1: CTI ARTICLE                                                   -->
  <!-- ==================================================================== -->
  <rect x="25" y="370" width="110" height="80" rx="8" fill="#1e2d3d" stroke="#4ecdc4" stroke-width="2"/>
  <!-- Document icon -->
  <rect x="57" y="379" width="32" height="40" rx="2" fill="none" stroke="#4ecdc4" stroke-width="1.5"/>
  <polyline points="80,379 89,379 89,388 80,379" fill="#4ecdc4" opacity="0.6"/>
  <line x1="64" y1="390" x2="82" y2="390" stroke="#4ecdc4" stroke-width="1"/>
  <line x1="64" y1="397" x2="82" y2="397" stroke="#4ecdc4" stroke-width="1"/>
  <line x1="64" y1="404" x2="75" y2="404" stroke="#4ecdc4" stroke-width="1"/>
  <text x="80" y="427" text-anchor="middle" font-size="11" fill="white">CTI</text>
  <text x="80" y="441" text-anchor="middle" font-size="11" fill="white">Article</text>

  <!-- Arrow 1 to OS Detection -->
  <line x1="135" y1="410" x2="173" y2="345" stroke="#4ecdc4" stroke-width="2" marker-end="url(#at)"/>

  <!-- ==================================================================== -->
  <!-- STAGE 2: OS DETECTION                                                  -->
  <!-- ==================================================================== -->
  <rect x="175" y="295" width="135" height="85" rx="8" fill="#1e2d3d" stroke="#4ecdc4" stroke-width="2"/>
  <!-- Windows 4-pane -->
  <rect x="188" y="307" width="11" height="11" rx="1" fill="#4ecdc4" opacity="0.85"/>
  <rect x="202" y="307" width="11" height="11" rx="1" fill="#4ecdc4" opacity="0.85"/>
  <rect x="188" y="321" width="11" height="11" rx="1" fill="#4ecdc4" opacity="0.85"/>
  <rect x="202" y="321" width="11" height="11" rx="1" fill="#4ecdc4" opacity="0.85"/>
  <!-- Linux penguin (minimal) -->
  <ellipse cx="232" cy="316" rx="8" ry="11" fill="#4ecdc4" opacity="0.65"/>
  <ellipse cx="232" cy="315" rx="4" ry="5" fill="#1e2d3d"/>
  <circle cx="229" cy="313" r="1.5" fill="#1a2535"/>
  <circle cx="235" cy="313" r="1.5" fill="#1a2535"/>
  <!-- Apple (minimal) -->
  <ellipse cx="259" cy="314" rx="8" ry="10" fill="#4ecdc4" opacity="0.65"/>
  <path d="M 262 305 Q 265 301 268 303" fill="none" stroke="#4ecdc4" stroke-width="1.5" opacity="0.65"/>
  <text x="242" y="365" text-anchor="middle" font-size="11" fill="white">OS Detection</text>

  <!-- Down line to filter box -->
  <line x1="242" y1="380" x2="242" y2="396" stroke="#4ecdc4" stroke-width="1.5"/>

  <!-- Windows-only filter box -->
  <rect x="175" y="397" width="135" height="65" rx="8" fill="#1e2d3d" stroke="#4ecdc4" stroke-width="1.5" stroke-dasharray="5,3"/>
  <text x="242" y="417" text-anchor="middle" font-size="10" fill="#8892aa">Windows only</text>
  <text x="215" y="448" text-anchor="middle" font-size="21" fill="#4ecdc4">&#10003;</text>
  <text x="269" y="448" text-anchor="middle" font-size="21" fill="#e05555">&#10007;</text>
  <!-- X branch drops off -->
  <line x1="269" y1="455" x2="269" y2="472" stroke="#e05555" stroke-width="1.5" marker-end="url(#ar)"/>

  <!-- Windows check to Junk Filter -->
  <line x1="215" y1="456" x2="345" y2="410" stroke="#4ecdc4" stroke-width="2" marker-end="url(#at)"/>

  <!-- ==================================================================== -->
  <!-- STAGE 3: JUNK FILTER                                                   -->
  <!-- ==================================================================== -->
  <rect x="347" y="370" width="118" height="80" rx="8" fill="#1e2d3d" stroke="#4ecdc4" stroke-width="2"/>
  <!-- Funnel icon -->
  <polygon points="360,383 449,383 428,405 428,423 369,423 369,405" fill="none" stroke="#4ecdc4" stroke-width="1.5"/>
  <circle cx="375" cy="391" r="3" fill="#e05555" opacity="0.75"/>
  <circle cx="394" cy="388" r="3" fill="#e05555" opacity="0.75"/>
  <circle cx="414" cy="392" r="3" fill="#e05555" opacity="0.75"/>
  <text x="398" y="414" text-anchor="middle" font-size="10" fill="#e05555">&#10007; &#10007; &#10007;</text>
  <text x="406" y="440" text-anchor="middle" font-size="11" fill="white">Junk Filter</text>

  <!-- Arrow 3 to 4 -->
  <line x1="465" y1="410" x2="511" y2="410" stroke="#4ecdc4" stroke-width="2" marker-end="url(#at)"/>

  <!-- ==================================================================== -->
  <!-- STAGE 4: RANK AGENT                                                    -->
  <!-- ==================================================================== -->
  <rect x="513" y="358" width="155" height="104" rx="8" fill="#1e2d3d" stroke="#d4941a" stroke-width="2"/>
  <!-- Gauge arc background -->
  <path d="M 533 415 A 32 32 0 0 1 597 415" fill="none" stroke="#2a3a4a" stroke-width="6"/>
  <!-- Gauge fill to ~8/10 -->
  <path d="M 533 415 A 32 32 0 0 1 590 388" fill="none" stroke="#d4941a" stroke-width="6" stroke-linecap="round"/>
  <!-- Tick marks -->
  <line x1="533" y1="415" x2="538" y2="409" stroke="#d4941a" stroke-width="1"/>
  <line x1="565" y1="383" x2="565" y2="389" stroke="#d4941a" stroke-width="1"/>
  <line x1="597" y1="415" x2="591" y2="409" stroke="#d4941a" stroke-width="1"/>
  <!-- Needle -->
  <line x1="565" y1="415" x2="590" y2="390" stroke="white" stroke-width="2.5" stroke-linecap="round"/>
  <circle cx="565" cy="415" r="4" fill="white"/>
  <!-- Labels -->
  <text x="534" y="420" font-size="8" fill="#8892aa">1</text>
  <text x="555" y="380" font-size="8" fill="#8892aa">8</text>
  <text x="592" y="420" font-size="8" fill="#8892aa">10</text>
  <text x="590" y="435" text-anchor="middle" font-size="11" fill="white">SIGMA</text>
  <text x="590" y="448" text-anchor="middle" font-size="11" fill="white">Huntability</text>
  <!-- AI/LLM badge -->
  <rect x="546" y="452" width="88" height="14" rx="7" fill="#d4941a" opacity="0.9"/>
  <text x="590" y="463" text-anchor="middle" font-size="9" fill="white">AI / LLM</text>

  <!-- Connector to RankAgentQA -->
  <line x1="590" y1="462" x2="590" y2="476" stroke="#4ecdc4" stroke-width="1" stroke-dasharray="4,3"/>

  <!-- RankAgentQA (NEW - not in original diagram) -->
  <rect x="513" y="477" width="155" height="52" rx="8" fill="#1e2d3d" stroke="#4ecdc4" stroke-width="1.5" stroke-dasharray="6,3"/>
  <path d="M 527 487 L 527 502 C 527 507 536 511 536 511 C 536 511 545 507 545 502 L 545 487 Z"
        fill="none" stroke="#4ecdc4" stroke-width="1.5"/>
  <text x="537" y="502" text-anchor="middle" font-size="11" fill="#4ecdc4">&#10003;</text>
  <text x="580" y="498" text-anchor="middle" font-size="10" fill="white">RankAgentQA</text>
  <!-- NEW badge -->
  <rect x="618" y="513" width="30" height="13" rx="4" fill="#d4941a" opacity="0.9"/>
  <text x="633" y="523" text-anchor="middle" font-size="8" fill="white" font-weight="bold">NEW</text>

  <!-- Arrow 4 to Extract Agent group -->
  <line x1="668" y1="410" x2="721" y2="410" stroke="#4ecdc4" stroke-width="2" marker-end="url(#at)"/>

  <!-- ==================================================================== -->
  <!-- STAGE 5: EXTRACT AGENT GROUP BOX                                       -->
  <!-- ==================================================================== -->
  <rect x="723" y="45" width="487" height="622" rx="12" fill="#1e2d3d" stroke="#d4941a" stroke-width="2.5"/>
  <text x="966" y="70" text-anchor="middle" font-size="14" font-weight="bold" fill="#d4941a">5. Extract Agent</text>

  <!-- Left distributor trunk: x=751, row centers y=127,225,323,421,519,617 -->
  <line x1="751" y1="127" x2="751" y2="617" stroke="#4ecdc4" stroke-width="1.5" opacity="0.55"/>

  <!-- Right collector trunk: x=1167 -->
  <line x1="1167" y1="127" x2="1167" y2="617" stroke="#4ecdc4" stroke-width="1.5" opacity="0.55"/>

  <!-- Exit: collector to Stage 6 -->
  <line x1="1167" y1="410" x2="1209" y2="410" stroke="#4ecdc4" stroke-width="2" marker-end="url(#at)"/>

  <!-- ---- ROW 1: CmdlineExtract + CmdLineQA  (top=95, center=127) ---- -->
  <line x1="751" y1="127" x2="769" y2="127" stroke="#4ecdc4" stroke-width="1.5" marker-end="url(#at)"/>
  <!-- Extract box -->
  <rect x="771" y="95" width="170" height="65" rx="6" fill="#162030" stroke="#4ecdc4" stroke-width="1.5"/>
  <rect x="781" y="103" width="22" height="16" rx="2" fill="none" stroke="#4ecdc4" stroke-width="1"/>
  <text x="793" y="115" text-anchor="middle" font-family="monospace" font-size="9" fill="#4ecdc4">&gt;_</text>
  <text x="880" y="124" text-anchor="middle" font-size="11" fill="white">CmdlineExtract</text>
  <text x="880" y="138" text-anchor="middle" font-size="9" fill="#6b7a8d">command lines</text>
  <!-- Arrow to QA -->
  <line x1="941" y1="127" x2="959" y2="127" stroke="#4ecdc4" stroke-width="1.5" marker-end="url(#at)"/>
  <!-- QA box -->
  <rect x="961" y="95" width="122" height="65" rx="6" fill="#162030" stroke="#4ecdc4" stroke-width="1.5"/>
  <path d="M 970 103 L 970 117 C 970 122 979 126 979 126 C 979 126 988 122 988 117 L 988 103 Z"
        fill="none" stroke="#4ecdc4" stroke-width="1.5"/>
  <text x="980" y="116" text-anchor="middle" font-size="10" fill="#4ecdc4">&#10003;</text>
  <text x="1022" y="124" text-anchor="middle" font-size="11" fill="white">CmdLineQA</text>
  <!-- QA to collector -->
  <line x1="1083" y1="127" x2="1167" y2="127" stroke="#4ecdc4" stroke-width="1" opacity="0.35"/>

  <!-- ---- ROW 2: ProcTreeExtract + ProcTreeQA  (top=193, center=225) ---- -->
  <line x1="751" y1="225" x2="769" y2="225" stroke="#4ecdc4" stroke-width="1.5" marker-end="url(#at)"/>
  <rect x="771" y="193" width="170" height="65" rx="6" fill="#162030" stroke="#4ecdc4" stroke-width="1.5"/>
  <!-- Tree icon -->
  <circle cx="791" cy="213" r="6" fill="none" stroke="#4ecdc4" stroke-width="1.5"/>
  <circle cx="783" cy="229" r="5" fill="none" stroke="#4ecdc4" stroke-width="1"/>
  <circle cx="799" cy="229" r="5" fill="none" stroke="#4ecdc4" stroke-width="1"/>
  <line x1="791" y1="219" x2="791" y2="224" stroke="#4ecdc4" stroke-width="1.2"/>
  <line x1="791" y1="224" x2="783" y2="224" stroke="#4ecdc4" stroke-width="1.2"/>
  <line x1="791" y1="224" x2="799" y2="224" stroke="#4ecdc4" stroke-width="1.2"/>
  <text x="880" y="222" text-anchor="middle" font-size="11" fill="white">ProcTreeExtract</text>
  <text x="880" y="236" text-anchor="middle" font-size="9" fill="#6b7a8d">process tree</text>
  <line x1="941" y1="225" x2="959" y2="225" stroke="#4ecdc4" stroke-width="1.5" marker-end="url(#at)"/>
  <rect x="961" y="193" width="122" height="65" rx="6" fill="#162030" stroke="#4ecdc4" stroke-width="1.5"/>
  <path d="M 970 201 L 970 215 C 970 220 979 224 979 224 C 979 224 988 220 988 215 L 988 201 Z"
        fill="none" stroke="#4ecdc4" stroke-width="1.5"/>
  <text x="980" y="214" text-anchor="middle" font-size="10" fill="#4ecdc4">&#10003;</text>
  <text x="1022" y="222" text-anchor="middle" font-size="11" fill="white">ProcTreeQA</text>
  <line x1="1083" y1="225" x2="1167" y2="225" stroke="#4ecdc4" stroke-width="1" opacity="0.35"/>

  <!-- ---- ROW 3: HuntQueriesExtract + HuntQueriesQA  (top=291, center=323) ---- -->
  <line x1="751" y1="323" x2="769" y2="323" stroke="#4ecdc4" stroke-width="1.5" marker-end="url(#at)"/>
  <rect x="771" y="291" width="170" height="65" rx="6" fill="#162030" stroke="#4ecdc4" stroke-width="1.5"/>
  <!-- Search icon -->
  <circle cx="791" cy="321" r="9" fill="none" stroke="#4ecdc4" stroke-width="1.5"/>
  <line x1="798" y1="328" x2="805" y2="335" stroke="#4ecdc4" stroke-width="2" stroke-linecap="round"/>
  <text x="880" y="320" text-anchor="middle" font-size="10" fill="white">HuntQueriesExtract</text>
  <text x="880" y="334" text-anchor="middle" font-size="9" fill="#6b7a8d">hunt queries</text>
  <line x1="941" y1="323" x2="959" y2="323" stroke="#4ecdc4" stroke-width="1.5" marker-end="url(#at)"/>
  <rect x="961" y="291" width="122" height="65" rx="6" fill="#162030" stroke="#4ecdc4" stroke-width="1.5"/>
  <path d="M 970 299 L 970 313 C 970 318 979 322 979 322 C 979 322 988 318 988 313 L 988 299 Z"
        fill="none" stroke="#4ecdc4" stroke-width="1.5"/>
  <text x="980" y="312" text-anchor="middle" font-size="10" fill="#4ecdc4">&#10003;</text>
  <text x="1022" y="315" text-anchor="middle" font-size="10" fill="white">HuntQueriesQA</text>
  <line x1="1083" y1="323" x2="1167" y2="323" stroke="#4ecdc4" stroke-width="1" opacity="0.35"/>

  <!-- ---- ROW 4 (NEW): RegistryExtract + RegistryQA  (top=389, center=421) ---- -->
  <line x1="751" y1="421" x2="769" y2="421" stroke="#4ecdc4" stroke-width="1.5" marker-end="url(#at)"/>
  <rect x="771" y="389" width="170" height="65" rx="6" fill="#1a2535" stroke="#d4941a" stroke-width="1.5"/>
  <!-- Registry icon: 2x2 grid -->
  <rect x="781" y="397" width="9" height="9" rx="1" fill="none" stroke="#d4941a" stroke-width="1.2"/>
  <rect x="793" y="397" width="9" height="9" rx="1" fill="none" stroke="#d4941a" stroke-width="1.2"/>
  <rect x="781" y="409" width="9" height="9" rx="1" fill="none" stroke="#d4941a" stroke-width="1.2"/>
  <rect x="793" y="409" width="9" height="9" rx="1" fill="none" stroke="#d4941a" stroke-width="1.2"/>
  <text x="880" y="418" text-anchor="middle" font-size="11" fill="white">RegistryExtract</text>
  <text x="880" y="432" text-anchor="middle" font-size="9" fill="#6b7a8d">registry keys</text>
  <rect x="920" y="390" width="22" height="12" rx="4" fill="#d4941a" opacity="0.9"/>
  <text x="931" y="399" text-anchor="middle" font-size="7" fill="white" font-weight="bold">NEW</text>
  <line x1="941" y1="421" x2="959" y2="421" stroke="#4ecdc4" stroke-width="1.5" marker-end="url(#at)"/>
  <rect x="961" y="389" width="122" height="65" rx="6" fill="#1a2535" stroke="#d4941a" stroke-width="1.5"/>
  <path d="M 970 397 L 970 411 C 970 416 979 420 979 420 C 979 420 988 416 988 411 L 988 397 Z"
        fill="none" stroke="#d4941a" stroke-width="1.5"/>
  <text x="980" y="410" text-anchor="middle" font-size="10" fill="#d4941a">&#10003;</text>
  <text x="1022" y="418" text-anchor="middle" font-size="11" fill="white">RegistryQA</text>
  <rect x="1062" y="390" width="22" height="12" rx="4" fill="#d4941a" opacity="0.9"/>
  <text x="1073" y="399" text-anchor="middle" font-size="7" fill="white" font-weight="bold">NEW</text>
  <line x1="1083" y1="421" x2="1167" y2="421" stroke="#4ecdc4" stroke-width="1" opacity="0.35"/>

  <!-- ---- ROW 5 (NEW): ServicesExtract + ServicesQA  (top=487, center=519) ---- -->
  <line x1="751" y1="519" x2="769" y2="519" stroke="#4ecdc4" stroke-width="1.5" marker-end="url(#at)"/>
  <rect x="771" y="487" width="170" height="65" rx="6" fill="#1a2535" stroke="#d4941a" stroke-width="1.5"/>
  <!-- Gear icon -->
  <circle cx="791" cy="519" r="9" fill="none" stroke="#d4941a" stroke-width="1.5"/>
  <circle cx="791" cy="519" r="4" fill="none" stroke="#d4941a" stroke-width="1"/>
  <line x1="791" y1="507" x2="791" y2="511" stroke="#d4941a" stroke-width="2"/>
  <line x1="791" y1="527" x2="791" y2="531" stroke="#d4941a" stroke-width="2"/>
  <line x1="779" y1="519" x2="783" y2="519" stroke="#d4941a" stroke-width="2"/>
  <line x1="799" y1="519" x2="803" y2="519" stroke="#d4941a" stroke-width="2"/>
  <text x="880" y="516" text-anchor="middle" font-size="11" fill="white">ServicesExtract</text>
  <text x="880" y="530" text-anchor="middle" font-size="9" fill="#6b7a8d">services / drivers</text>
  <rect x="920" y="488" width="22" height="12" rx="4" fill="#d4941a" opacity="0.9"/>
  <text x="931" y="497" text-anchor="middle" font-size="7" fill="white" font-weight="bold">NEW</text>
  <line x1="941" y1="519" x2="959" y2="519" stroke="#4ecdc4" stroke-width="1.5" marker-end="url(#at)"/>
  <rect x="961" y="487" width="122" height="65" rx="6" fill="#1a2535" stroke="#d4941a" stroke-width="1.5"/>
  <path d="M 970 495 L 970 509 C 970 514 979 518 979 518 C 979 518 988 514 988 509 L 988 495 Z"
        fill="none" stroke="#d4941a" stroke-width="1.5"/>
  <text x="980" y="508" text-anchor="middle" font-size="10" fill="#d4941a">&#10003;</text>
  <text x="1022" y="516" text-anchor="middle" font-size="11" fill="white">ServicesQA</text>
  <rect x="1062" y="488" width="22" height="12" rx="4" fill="#d4941a" opacity="0.9"/>
  <text x="1073" y="497" text-anchor="middle" font-size="7" fill="white" font-weight="bold">NEW</text>
  <line x1="1083" y1="519" x2="1167" y2="519" stroke="#4ecdc4" stroke-width="1" opacity="0.35"/>

  <!-- ---- ROW 6 (NEW): ScheduledTasksExtract + ScheduledTasksQA  (top=585, center=617) ---- -->
  <line x1="751" y1="617" x2="769" y2="617" stroke="#4ecdc4" stroke-width="1.5" marker-end="url(#at)"/>
  <rect x="771" y="585" width="170" height="65" rx="6" fill="#1a2535" stroke="#d4941a" stroke-width="1.5"/>
  <!-- Calendar icon -->
  <rect x="780" y="592" width="20" height="20" rx="2" fill="none" stroke="#d4941a" stroke-width="1.2"/>
  <line x1="784" y1="589" x2="784" y2="595" stroke="#d4941a" stroke-width="1.5"/>
  <line x1="796" y1="589" x2="796" y2="595" stroke="#d4941a" stroke-width="1.5"/>
  <line x1="780" y1="600" x2="800" y2="600" stroke="#d4941a" stroke-width="1"/>
  <text x="790" y="611" font-size="8" text-anchor="middle" fill="#d4941a">12</text>
  <text x="880" y="610" text-anchor="middle" font-size="10" fill="white">ScheduledTasks</text>
  <text x="880" y="624" text-anchor="middle" font-size="10" fill="white">Extract</text>
  <rect x="920" y="586" width="22" height="12" rx="4" fill="#d4941a" opacity="0.9"/>
  <text x="931" y="595" text-anchor="middle" font-size="7" fill="white" font-weight="bold">NEW</text>
  <line x1="941" y1="617" x2="959" y2="617" stroke="#4ecdc4" stroke-width="1.5" marker-end="url(#at)"/>
  <rect x="961" y="585" width="122" height="65" rx="6" fill="#1a2535" stroke="#d4941a" stroke-width="1.5"/>
  <path d="M 970 593 L 970 607 C 970 612 979 616 979 616 C 979 616 988 612 988 607 L 988 593 Z"
        fill="none" stroke="#d4941a" stroke-width="1.5"/>
  <text x="980" y="606" text-anchor="middle" font-size="10" fill="#d4941a">&#10003;</text>
  <text x="1022" y="608" text-anchor="middle" font-size="10" fill="white">ScheduledTasks</text>
  <text x="1022" y="621" text-anchor="middle" font-size="10" fill="white">QA</text>
  <rect x="1062" y="586" width="22" height="12" rx="4" fill="#d4941a" opacity="0.9"/>
  <text x="1073" y="595" text-anchor="middle" font-size="7" fill="white" font-weight="bold">NEW</text>
  <line x1="1083" y1="617" x2="1167" y2="617" stroke="#4ecdc4" stroke-width="1" opacity="0.35"/>

  <!-- ==================================================================== -->
  <!-- STAGE 6: SIGMA GENERATOR                                               -->
  <!-- ==================================================================== -->
  <line x1="1210" y1="410" x2="1238" y2="410" stroke="#4ecdc4" stroke-width="2" marker-end="url(#at)"/>
  <rect x="1240" y="360" width="145" height="100" rx="8" fill="#1e2d3d" stroke="#4ecdc4" stroke-width="2"/>
  <!-- YAML curly-brace icon -->
  <text x="1270" y="397" text-anchor="middle" font-family="monospace" font-size="22" fill="#4ecdc4">{...}</text>
  <text x="1313" y="420" text-anchor="middle" font-size="11" fill="#4ecdc4">YAML</text>
  <text x="1313" y="434" text-anchor="middle" font-size="11" fill="white">Sigma</text>
  <text x="1313" y="448" text-anchor="middle" font-size="11" fill="white">Generator</text>

  <!-- Arrow 6 to 7 -->
  <line x1="1385" y1="410" x2="1413" y2="410" stroke="#4ecdc4" stroke-width="2" marker-end="url(#at)"/>

  <!-- ==================================================================== -->
  <!-- STAGE 7: SIMILARITY SEARCH                                             -->
  <!-- ==================================================================== -->
  <rect x="1415" y="370" width="145" height="80" rx="8" fill="#1e2d3d" stroke="#4ecdc4" stroke-width="2"/>
  <!-- Overlapping docs icon -->
  <rect x="1427" y="380" width="32" height="40" rx="2" fill="#1e2d3d" stroke="#4ecdc4" stroke-width="1.5"/>
  <rect x="1441" y="387" width="32" height="40" rx="2" fill="#1e2d3d" stroke="#4ecdc4" stroke-width="1.5"/>
  <line x1="1449" y1="397" x2="1465" y2="397" stroke="#4ecdc4" stroke-width="1"/>
  <line x1="1449" y1="404" x2="1465" y2="404" stroke="#4ecdc4" stroke-width="1"/>
  <line x1="1449" y1="411" x2="1460" y2="411" stroke="#4ecdc4" stroke-width="1"/>
  <text x="1487" y="421" text-anchor="middle" font-size="11" fill="white">Similarity</text>
  <text x="1487" y="435" text-anchor="middle" font-size="11" fill="white">Search</text>

  <!-- Arrow 7 to 8 -->
  <line x1="1560" y1="410" x2="1601" y2="410" stroke="#4ecdc4" stroke-width="2" marker-end="url(#at)"/>

  <!-- ==================================================================== -->
  <!-- STAGE 8: QUEUE / HUMAN REVIEW                                          -->
  <!-- ==================================================================== -->
  <rect x="1603" y="370" width="155" height="80" rx="8" fill="#1e2d3d" stroke="#4ecdc4" stroke-width="2"/>
  <!-- Checklist icon -->
  <rect x="1618" y="381" width="30" height="36" rx="2" fill="none" stroke="#4ecdc4" stroke-width="1.5"/>
  <rect x="1623" y="388" width="8" height="8" rx="1" fill="none" stroke="#4ecdc4" stroke-width="1"/>
  <polyline points="1624,392 1627,395 1631,389" fill="none" stroke="#4ecdc4" stroke-width="1.2"/>
  <line x1="1635" y1="392" x2="1645" y2="392" stroke="#4ecdc4" stroke-width="1"/>
  <rect x="1623" y="401" width="8" height="8" rx="1" fill="none" stroke="#4ecdc4" stroke-width="1"/>
  <line x1="1635" y1="405" x2="1645" y2="405" stroke="#4ecdc4" stroke-width="1"/>
  <text x="1680" y="419" text-anchor="middle" font-size="11" fill="white">Human</text>
  <text x="1680" y="433" text-anchor="middle" font-size="11" fill="white">Review</text>

</svg>
