<svg width="48" height="48" viewBox="0 0 48 48" xmlns="http://www.w3.org/2000/svg">
  <path d="M24 6 L39 11 L39 24 Q39 36 24 42 Q9 36 9 24 L9 11 Z"
        fill="none" stroke="#8b5cf6" stroke-width="2" opacity="0.85"/>
  <path d="M24 6 L39 11 L39 24 Q39 36 24 42 Q9 36 9 24 L9 11 Z"
        fill="#8b5cf6" opacity="0.12"/>
  <!-- H left vertical -->
  <rect x="15" y="15" width="3.5" height="18" fill="#a78bfa" rx="0.8"/>
  <!-- H right vertical -->
  <rect x="29.5" y="15" width="3.5" height="18" fill="#a78bfa" rx="0.8"/>
  <!-- H crossbar -->
  <rect x="15" y="22.5" width="18" height="3" fill="#c4b5fd" rx="0.8"/>
  <!-- Crosshair vertical lines -->
  <line x1="24" y1="9" x2="24" y2="19" stroke="#8b5cf6" stroke-width="1.5" opacity="0.6" stroke-linecap="round"/>
  <line x1="24" y1="29" x2="24" y2="39" stroke="#8b5cf6" stroke-width="1.5" opacity="0.6" stroke-linecap="round"/>
  <!-- Target center -->
  <circle cx="24" cy="24" r="3" fill="#8b5cf6" opacity="0.9"/>
  <circle cx="24" cy="24" r="1.4" fill="#e9d5ff"/>
</svg>
