<svg width="160" height="160" viewBox="0 0 160 160" xmlns="http://www.w3.org/2000/svg">
    <!-- Background circle -->
    <circle cx="80" cy="80" r="70" fill="#1a1a2e" opacity="0.9"/>
    
    <!-- Neural network nodes -->
    <circle cx="50" cy="60" r="8" fill="#A78BFA" opacity="0.9"/>
    <circle cx="80" cy="50" r="8" fill="#A78BFA" opacity="0.9"/>
    <circle cx="110" cy="60" r="8" fill="#A78BFA" opacity="0.9"/>
    
    <circle cx="45" cy="100" r="7" fill="#C4B5FD" opacity="0.9"/>
    <circle cx="70" cy="95" r="7" fill="#C4B5FD" opacity="0.9"/>
    <circle cx="90" cy="95" r="7" fill="#C4B5FD" opacity="0.9"/>
    <circle cx="115" cy="100" r="7" fill="#C4B5FD" opacity="0.9"/>
    
    <circle cx="80" cy="130" r="8" fill="#8B5CF6" opacity="0.9"/>
    
    <!-- Connections -->
    <line x1="50" y1="60" x2="45" y2="100" stroke="#8B5CF6" stroke-width="2" opacity="0.4"/>
    <line x1="50" y1="60" x2="70" y2="95" stroke="#8B5CF6" stroke-width="2" opacity="0.4"/>
    <line x1="80" y1="50" x2="70" y2="95" stroke="#8B5CF6" stroke-width="2" opacity="0.4"/>
    <line x1="80" y1="50" x2="90" y2="95" stroke="#8B5CF6" stroke-width="2" opacity="0.4"/>
    <line x1="110" y1="60" x2="90" y2="95" stroke="#8B5CF6" stroke-width="2" opacity="0.4"/>
    <line x1="110" y1="60" x2="115" y2="100" stroke="#8B5CF6" stroke-width="2" opacity="0.4"/>
    <line x1="45" y1="100" x2="80" y2="130" stroke="#8B5CF6" stroke-width="2" opacity="0.4"/>
    <line x1="70" y1="95" x2="80" y2="130" stroke="#8B5CF6" stroke-width="2" opacity="0.4"/>
    <line x1="90" y1="95" x2="80" y2="130" stroke="#8B5CF6" stroke-width="2" opacity="0.4"/>
    <line x1="115" y1="100" x2="80" y2="130" stroke="#8B5CF6" stroke-width="2" opacity="0.4"/>
</svg>
